<?xml version="1.0" encoding="utf-8"?><!DOCTYPE svg  PUBLIC '-//W3C//DTD SVG 1.1//EN'  'http://www.w3.org/Graphics/SVG/1.1/DTD/svg11.dtd'><svg xmlns="http://www.w3.org/2000/svg" xmlns:xlink="http://www.w3.org/1999/xlink"><symbol viewBox="0 0 30 30" id="alarm" xmlns="http://www.w3.org/2000/svg"><path class="aacls-1" d="M6.27 16.325a8.73 8.73 0 1 1 17.46 0 8.518 8.518 0 0 1-2.548 6.21 8.7 8.7 0 0 1-12.364 0 8.518 8.518 0 0 1-2.548-6.21zm-2.52 0a11.251 11.251 0 1 0 3.281-7.94 10.875 10.875 0 0 0-3.281 7.94zm10.02-6.21v7.5l5.918 3.52.937-1.53-4.98-2.93v-6.56H13.77zm-5.508-7.68L2.52 7.245l1.582 1.87 5.742-4.8zm13.476 0l-1.582 1.88 5.742 4.86 1.582-1.93z"/></symbol><symbol viewBox="0 0 18.875 22.2" id="android" xmlns="http://www.w3.org/2000/svg"><path data-name="" class="abcls-1" d="M6.605 4.7a.489.489 0 0 1-.509-.5.521.521 0 1 1 1.031 0 .493.493 0 0 1-.522.5zm5.653 0a.493.493 0 0 1-.522-.5.522.522 0 1 1 1.032 0 .49.49 0 0 1-.51.5zM1.38 7.2A1.352 1.352 0 0 0 0 8.5v5.8a1.373 1.373 0 1 0 2.746 0V8.5A1.349 1.349 0 0 0 1.38 7.2zm14.2.2H3.28v8.9a1.442 1.442 0 0 0 1.474 1.5h.991l.014 3a1.373 1.373 0 1 0 2.746 0v-3h1.849v3a1.38 1.38 0 1 0 2.76 0v-3h1a1.439 1.439 0 0 0 1.46-1.5V7.4zM12.472 2l.951-1.8c.054-.1.027-.2-.067-.2a.256.256 0 0 0-.268 0l-.965 1.8a6.341 6.341 0 0 0-5.385 0L5.773 0a.255.255 0 0 0-.268 0c-.094 0-.12.1-.067.2L6.389 2a5.6 5.6 0 0 0-3.161 4.9H15.62A5.612 5.612 0 0 0 12.473 2zm6.39 6.5a1.375 1.375 0 0 0-2.746 0v5.8a1.373 1.373 0 1 0 2.746 0V8.5z"/></symbol><symbol viewBox="0 0 18.66 22.3" id="apple" xmlns="http://www.w3.org/2000/svg"><path data-name="" class="accls-1" d="M18.66 16.3a3.819 3.819 0 0 1-2.11-1.7 5.17 5.17 0 0 1-.93-3 4.555 4.555 0 0 1 .87-2.7 7.886 7.886 0 0 1 1.53-1.6 9.207 9.207 0 0 0-1.39-1.4 5.482 5.482 0 0 0-2.86-.8 7.237 7.237 0 0 0-2.32.4 7.514 7.514 0 0 1-1.91.5 16.8 16.8 0 0 1-1.85-.4 7.694 7.694 0 0 0-2.37-.4 4.577 4.577 0 0 0-3.81 1.9 8.037 8.037 0 0 0-1.51 5 13.533 13.533 0 0 0 1.97 6.7C3.3 21.1 4.62 22.3 6 22.3a4.784 4.784 0 0 0 1.77-.4 5.316 5.316 0 0 1 1.9-.5 9.459 9.459 0 0 1 2.03.4 6.14 6.14 0 0 0 1.87.5q1.71 0 3.44-2.7a11.33 11.33 0 0 0 1.65-3.3zM13.62.6c0-.1-.01-.2-.01-.3a1.628 1.628 0 0 0-.07-.3 5.37 5.37 0 0 0-3.34 2 6.158 6.158 0 0 0-1.05 3.4 4.407 4.407 0 0 0 1.39-.2 3.765 3.765 0 0 0 1.45-.9 5.853 5.853 0 0 0 1.25-1.9 5.061 5.061 0 0 0 .38-1.8z"/></symbol><symbol viewBox="0 0 22.5 22.5" id="assessment" xmlns="http://www.w3.org/2000/svg"><path class="adcls-1" d="M15 17.52v-5.04h2.52v5.04H15zm-4.98 0V4.98h2.46v12.54h-2.46zm-5.04 0V8.73H7.5v8.79H4.98zM2.52 0A2.4 2.4 0 0 0 .762.76 2.429 2.429 0 0 0 0 2.52v17.46a2.6 2.6 0 0 0 2.52 2.52h17.46a2.6 2.6 0 0 0 2.52-2.52V2.52a2.433 2.433 0 0 0-.762-1.76A2.4 2.4 0 0 0 19.98 0H2.52z"/></symbol><symbol viewBox="0 0 30 30" id="brightness_6" xmlns="http://www.w3.org/2000/svg"><path class="aecls-1" d="M15 7.495a7.5 7.5 0 0 1 0 15v-15zm14.121 7.5l-4.1-4.16v-5.86h-5.86l-4.16-4.1-4.16 4.1h-5.86v5.86l-4.1 4.16 4.1 4.16v5.86h5.86l4.16 4.1 4.16-4.1h5.86v-5.86z"/></symbol><symbol viewBox="0 0 24 24" id="close_menu" xmlns="http://www.w3.org/2000/svg"><path d="M19 6.41L17.59 5 12 10.59 6.41 5 5 6.41 10.59 12 5 17.59 6.41 19 12 13.41 17.59 19 19 17.59 13.41 12z"/><path d="M0 0h24v24H0z"/></symbol><symbol viewBox="0 0 48 32.06" id="cloud" xmlns="http://www.w3.org/2000/svg"><path class="agcls-1" d="M24 28.03L13.969 18h6v-7.97h8.062V18h6zm9.563-24.61A14.544 14.544 0 0 0 24 0a14.288 14.288 0 0 0-7.781 2.25 15.655 15.655 0 0 0-5.531 5.91A11.985 11.985 0 0 0 12 32.06h25.969A10.077 10.077 0 0 0 48 22.03a9.551 9.551 0 0 0-2.719-6.8 9.8 9.8 0 0 0-6.562-3.14 14.616 14.616 0 0 0-5.156-8.67z"/></symbol><symbol viewBox="0 0 48 32.06" id="cloud_download" xmlns="http://www.w3.org/2000/svg"><path class="ahcls-1" d="M24 28.03L13.969 18h6v-7.97h8.062V18h6zm9.563-24.61A14.544 14.544 0 0 0 24 0a14.288 14.288 0 0 0-7.781 2.25 15.655 15.655 0 0 0-5.531 5.91A11.985 11.985 0 0 0 12 32.06h25.969A10.077 10.077 0 0 0 48 22.03a9.551 9.551 0 0 0-2.719-6.8 9.8 9.8 0 0 0-6.562-3.14 14.616 14.616 0 0 0-5.156-8.67z"/></symbol><symbol viewBox="0 0 13.5 13.5" id="color_lens" xmlns="http://www.w3.org/2000/svg"><path class="aicls-1" d="M9.74 5.63a1.07 1.07 0 0 1 .33-.81 1.12 1.12 0 0 1 .79-.32 1.1 1.1 0 0 1 .79.32 1.123 1.123 0 0 1 0 1.61 1.1 1.1 0 0 1-.79.32 1.12 1.12 0 0 1-.79-.32 1.063 1.063 0 0 1-.33-.8zM7.49 2.64a1.073 1.073 0 0 1 .33-.79 1.06 1.06 0 0 1 .79-.34 1.162 1.162 0 0 1 1.13 1.13 1.06 1.06 0 0 1-.34.79 1.073 1.073 0 0 1-.79.33 1.127 1.127 0 0 1-1.12-1.12zm-3.73 0a1.162 1.162 0 0 1 1.13-1.13 1.144 1.144 0 0 1 1.12 1.13 1.089 1.089 0 0 1-.33.79 1.105 1.105 0 0 1-.79.33 1.073 1.073 0 0 1-.79-.33 1.06 1.06 0 0 1-.34-.79zM1.51 5.63a1.043 1.043 0 0 1 .34-.81 1.1 1.1 0 0 1 .79-.32 1.137 1.137 0 0 1 .79.32 1.147 1.147 0 0 1 0 1.61 1.137 1.137 0 0 1-.79.32 1.1 1.1 0 0 1-.79-.32 1.037 1.037 0 0 1-.34-.8zm.46-3.66A6.75 6.75 0 0 0 6.75 13.5a1.094 1.094 0 0 0 1.13-1.12 1.217 1.217 0 0 0-.29-.78 1.2 1.2 0 0 1-.28-.74 1.137 1.137 0 0 1 .32-.79 1.07 1.07 0 0 1 .81-.33h1.3a3.632 3.632 0 0 0 2.65-1.09 3.574 3.574 0 0 0 1.11-2.64 5.461 5.461 0 0 0-1.99-4.25A6.94 6.94 0 0 0 6.75 0a6.505 6.505 0 0 0-4.78 1.97z"/></symbol><symbol viewBox="0 0 25 30" id="developer_mode" xmlns="http://www.w3.org/2000/svg"><path class="ajcls-1" d="M6.23 23.73v-2.46H3.77v4.98a2.467 2.467 0 0 0 .73 1.76 2.323 2.323 0 0 0 1.73.76h12.54a2.323 2.323 0 0 0 1.73-.76 2.467 2.467 0 0 0 .73-1.76v-4.98h-2.46v2.46H6.23zM6.05 15l3.93-3.98-1.76-1.76L2.48 15l5.74 5.74 1.76-1.76zm16.47 0l-5.74-5.74-1.76 1.76L18.95 15l-3.93 3.98 1.76 1.76zm-3.75-8.73v2.46h2.46V3.75a2.493 2.493 0 0 0-2.46-2.46L6.23 1.23a2.323 2.323 0 0 0-1.73.76 2.467 2.467 0 0 0-.73 1.76v4.98h2.46V6.27h12.54z"/></symbol><symbol viewBox="0 0 30 3" id="dots" xmlns="http://www.w3.org/2000/svg"><path class="akcls-1" d="M4.488 1.5A1.569 1.569 0 1 0 4.945.45a1.427 1.427 0 0 0-.457 1.05zm4.5 0A1.569 1.569 0 1 0 9.445.45a1.427 1.427 0 0 0-.457 1.05zm-9 0A1.569 1.569 0 1 0 .445.45 1.427 1.427 0 0 0-.012 1.5zm22.5 0a1.569 1.569 0 1 0 .457-1.05 1.427 1.427 0 0 0-.457 1.05zm4.5 0a1.569 1.569 0 1 0 .457-1.05 1.427 1.427 0 0 0-.457 1.05zm-9 0a1.569 1.569 0 1 0 .457-1.05 1.427 1.427 0 0 0-.457 1.05z"/></symbol><symbol viewBox="0 0 29.938 24" id="email" xmlns="http://www.w3.org/2000/svg"><path class="alcls-1" d="M14.969 13.5L2.946 6V3l12.023 7.5L26.992 3v3zM2.946 0A2.8 2.8 0 0 0 .871.9 2.912 2.912 0 0 0-.008 3v18a2.912 2.912 0 0 0 .879 2.1 2.8 2.8 0 0 0 2.075.9h24.046a2.808 2.808 0 0 0 2.075-.9 2.916 2.916 0 0 0 .879-2.1V3a2.916 2.916 0 0 0-.879-2.1 2.808 2.808 0 0 0-2.075-.9H2.946z"/></symbol><symbol viewBox="0 0 7.719 14.84" id="facebook" xmlns="http://www.w3.org/2000/svg"><path data-name="" class="amcls-1" d="M7.708.1a16.326 16.326 0 0 0-2.036-.11 3.184 3.184 0 0 0-3.4 3.49v1.95H-.005v2.64h2.277v6.78h2.731V8.07H7.27l.348-2.64H5.003V3.74a1.089 1.089 0 0 1 1.3-1.28h1.4V.1z"/></symbol><symbol viewBox="0 0 25 30" id="flag" xmlns="http://www.w3.org/2000/svg"><path class="ancls-1" d="M14.364 4.37H3.114v21.27h2.46v-8.73h7.032l.468 2.46h8.79V6.89h-7.032z"/></symbol><symbol viewBox="0 0 13.437 13.72" id="google" xmlns="http://www.w3.org/2000/svg"><path data-name="" class="aocls-1" d="M6.846 5.89v2.36h3.892a3.713 3.713 0 0 1-3.892 2.95 4.331 4.331 0 0 1 0-8.66A3.856 3.856 0 0 1 9.577 3.6l1.866-1.79a6.571 6.571 0 0 0-4.6-1.79 6.855 6.855 0 1 0 0 13.71 6.328 6.328 0 0 0 6.579-6.7 6.049 6.049 0 0 0-.108-1.14H6.843z"/></symbol><symbol viewBox="0 0 20 20" id="headset" xmlns="http://www.w3.org/2000/svg"><path class="apcls-1" d="M2.5 9.57v5.86a2.527 2.527 0 0 0 2.5 2.5h2.5v-6.68H4.18V9.57a5.82 5.82 0 1 1 11.64 0v1.68H12.5v6.68H15a2.527 2.527 0 0 0 2.5-2.5V9.57a7.5 7.5 0 0 0-15 0z"/></symbol><symbol viewBox="0 0 25 30" id="highlight" xmlns="http://www.w3.org/2000/svg"><path class="aqcls-1" d="M20.469 10.02l2.636-2.7-1.757-1.75-2.637 2.63zm-15.938 0L6.289 8.2 3.652 5.57 1.895 7.32zm6.739-3.75h2.46V2.52h-2.46v3.75zm-2.52 15v6.21h7.5v-6.21L20 17.52v-6.27H5v6.27z"/></symbol><symbol viewBox="0 0 13.687 13.12" id="in" xmlns="http://www.w3.org/2000/svg"><path data-name="" class="arcls-1" d="M3.106 4.26H.162v8.85h2.946V4.26zm.187-2.73A1.52 1.52 0 0 0 1.651 0a1.534 1.534 0 1 0-.036 3.06h.018a1.526 1.526 0 0 0 1.66-1.53zm10.408 6.51c0-2.72-1.446-3.98-3.383-3.98a2.909 2.909 0 0 0-2.669 1.49h.018V4.26H4.73s.036.83 0 8.85h2.937V8.17a2.173 2.173 0 0 1 .1-.72 1.6 1.6 0 0 1 1.509-1.07c1.062 0 1.49.81 1.49 2v4.73h2.937V8.04z"/></symbol><symbol viewBox="0 0 7 4.32" id="keyboard_arrow_down" xmlns="http://www.w3.org/2000/svg"><path class="ascls-1" d="M0 .83l3.5 3.5L7 .83 6.18.01 3.5 2.69.82.01z"/></symbol><symbol viewBox="0 0 13.5 9" id="keyboard_backspace" xmlns="http://www.w3.org/2000/svg"><path class="atcls-1" d="M10.62 5.2L7.95 7.9 9 9l4.5-4.5L9 0 7.95 1.1l2.67 2.7H0v1.4h10.62z"/></symbol><symbol viewBox="0 0 25 30" id="layers" xmlns="http://www.w3.org/2000/svg"><path class="aucls-1" d="M17.3 16.81q4.23-3.285 6.45-4.98L12.5 3.1 1.25 11.83q2.22 1.7 6.47 5.01t4.78 3.72q.585-.465 4.8-3.75zm-14-.23l-2.05 1.58 11.25 8.73 11.25-8.73-2.05-1.58-9.2 7.2z"/></symbol><symbol viewBox="0 0 25 30" id="lightbulb_outline" xmlns="http://www.w3.org/2000/svg"><path class="avcls-1" d="M15.02 17.11v2.87H9.98v-2.87l-1.05-.76a5.894 5.894 0 0 1-2.7-5.1 6.27 6.27 0 0 1 12.54 0 5.894 5.894 0 0 1-2.7 5.1zM3.77 11.25a8.2 8.2 0 0 0 3.75 7.15v2.87a1.2 1.2 0 0 0 1.23 1.23h7.5a1.2 1.2 0 0 0 1.23-1.23V18.4a8.2 8.2 0 0 0 3.75-7.15 8.73 8.73 0 1 0-17.46 0zM9.1 27.13a1.223 1.223 0 0 0 .88.35h5.04a1.2 1.2 0 0 0 1.23-1.23v-1.23h-7.5v1.23a1.223 1.223 0 0 0 .35.88z"/></symbol><symbol viewBox="0 0 20.938 30" id="location_on" xmlns="http://www.w3.org/2000/svg"><path class="awcls-1" d="M6.742 10.5a3.516 3.516 0 0 1 1.09-2.6 3.711 3.711 0 0 1 5.274 0 3.646 3.646 0 0 1 0 5.2 3.711 3.711 0 0 1-5.274 0 3.516 3.516 0 0 1-1.09-2.6zm-6.75 0a14.547 14.547 0 0 0 1.125 5.1 33.179 33.179 0 0 0 2.5 5.1 42.619 42.619 0 0 0 3.2 4.7c1.218 1.7 2.062 2.7 2.531 3.3a12.887 12.887 0 0 1 1.121 1.3l1.125-1.2c.7-.9 1.558-2 2.566-3.4 1.008-1.5 2.027-3 3.059-4.6a32.481 32.481 0 0 0 2.637-5.3 14.015 14.015 0 0 0 1.09-5 10.01 10.01 0 0 0-3.059-7.4 10.425 10.425 0 0 0-14.836 0 10.01 10.01 0 0 0-3.059 7.4z"/></symbol><symbol viewBox="0 0 15 12" id="mail_outline" xmlns="http://www.w3.org/2000/svg"><path class="axcls-1" d="M1.484 1.5h12.024L7.496 5.3zm0 9V3l6.012 3.7L13.508 3v7.5H1.484zm0-10.5A1.356 1.356 0 0 0 .447.4a1.762 1.762 0 0 0-.439 1.1v9a1.57 1.57 0 0 0 .439 1.1 1.356 1.356 0 0 0 1.037.4h12.024a1.356 1.356 0 0 0 1.037-.4 1.57 1.57 0 0 0 .439-1.1v-9a1.762 1.762 0 0 0-.439-1.1 1.356 1.356 0 0 0-1.037-.4H1.484z"/></symbol><symbol viewBox="0 0 32 32" id="menu" xmlns="http://www.w3.org/2000/svg"><path d="M4 10h24a2 2 0 0 0 0-4H4a2 2 0 0 0 0 4zm24 4H4a2 2 0 0 0 0 4h24a2 2 0 0 0 0-4zm0 8H4a2 2 0 0 0 0 4h24a2 2 0 0 0 0-4z"/></symbol><symbol viewBox="0 0 39.94 39.94" id="mood" xmlns="http://www.w3.org/2000/svg"><path class="azcls-1" d="M30.19 24H9.75a10.791 10.791 0 0 0 3.99 5.02 11.068 11.068 0 0 0 12.46 0A10.791 10.791 0 0 0 30.19 24zm-14.25-9a2.984 2.984 0 0 0-5.11-2.11A2.984 2.984 0 1 0 15.94 15zM30 15a3 3 0 1 0-5.11 2.11A3 3 0 0 0 30 15zM3.94 19.97a16.151 16.151 0 1 1 4.73 11.3 15.462 15.462 0 0 1-4.73-11.3zm-3.94 0A20.007 20.007 0 1 0 5.86 5.86 19.226 19.226 0 0 0 0 19.97z"/></symbol><symbol viewBox="0 0 20.062 27.44" id="mouse" xmlns="http://www.w3.org/2000/svg"><path class="bacls-1" d="M2.56 3.29A9.527 9.527 0 0 0 .011 9.91h8.79V.01A9.829 9.829 0 0 0 2.56 3.29zm.41 21.18a10.02 10.02 0 0 0 17.081-7.06v-4.98H.011v4.98a9.638 9.638 0 0 0 2.959 7.06zm8.291-14.56h8.79a9.527 9.527 0 0 0-2.549-6.62A9.829 9.829 0 0 0 11.261.01v9.9z"/></symbol><symbol viewBox="0 0 27 27" id="phone" xmlns="http://www.w3.org/2000/svg"><path class="bbcls-1" d="M8.719 8.4a1.567 1.567 0 0 0 .351-1.6 16.477 16.477 0 0 1-.843-5.3A1.608 1.608 0 0 0 7.805.4 1.347 1.347 0 0 0 6.75 0H1.477A1.346 1.346 0 0 0 .422.4 1.608 1.608 0 0 0 0 1.5 25.586 25.586 0 0 0 25.523 27a1.346 1.346 0 0 0 1.055-.4A1.608 1.608 0 0 0 27 25.5v-5.2a1.444 1.444 0 0 0-.422-1.1 1.346 1.346 0 0 0-1.055-.4 15.825 15.825 0 0 1-5.343-.9 1.343 1.343 0 0 0-1.547.4l-3.305 3.3a23.065 23.065 0 0 1-9.914-9.9z"/></symbol><symbol viewBox="0 0 100 20" id="phone_dots" xmlns="http://www.w3.org/2000/svg"><path class="bccls-1" d="M46.238 14.5V3.99h6.75V14.5h-6.75zm2.25 1.86a1.125 1.125 0 0 1 2.25 0 1.125 1.125 0 0 1-2.25 0zM46.625 1.74a1.782 1.782 0 0 0-1.318.56 1.862 1.862 0 0 0-.545 1.34v12.72a1.862 1.862 0 0 0 .545 1.34 1.782 1.782 0 0 0 1.318.56h6.012a1.786 1.786 0 0 0 1.318-.56 1.866 1.866 0 0 0 .545-1.34V3.64a1.866 1.866 0 0 0-.545-1.34 1.786 1.786 0 0 0-1.318-.56h-6.012zM69.488 10a1.569 1.569 0 1 0 .457-1.05 1.427 1.427 0 0 0-.457 1.05zm4.5 0a1.569 1.569 0 1 0 .457-1.05 1.427 1.427 0 0 0-.457 1.05zm-9 0a1.569 1.569 0 1 0 .457-1.05 1.427 1.427 0 0 0-.457 1.05zm22.5 0a1.487 1.487 0 0 0 2.562 1.05A1.51 1.51 0 0 0 89 8.49 1.569 1.569 0 0 0 87.488 10zm4.5 0a1.575 1.575 0 1 0 .46-1.05A1.412 1.412 0 0 0 91.99 10zm-9 0a1.569 1.569 0 1 0 .457-1.05 1.427 1.427 0 0 0-.457 1.05z"/><path data-name="more_horizmore_horiz" class="bccls-1" d="M9.488 10a1.569 1.569 0 1 0 .457-1.05A1.427 1.427 0 0 0 9.488 10zm4.5 0a1.569 1.569 0 1 0 .457-1.05 1.427 1.427 0 0 0-.457 1.05zm-9 0a1.569 1.569 0 1 0 .457-1.05A1.427 1.427 0 0 0 4.988 10zm22.5 0a1.569 1.569 0 1 0 .457-1.05 1.427 1.427 0 0 0-.457 1.05zm4.5 0a1.569 1.569 0 1 0 .457-1.05 1.427 1.427 0 0 0-.457 1.05zm-9 0a1.569 1.569 0 1 0 .457-1.05 1.427 1.427 0 0 0-.457 1.05z"/></symbol><symbol viewBox="0 0 15 20" id="phone_iphone" xmlns="http://www.w3.org/2000/svg"><path class="bdcls-1" d="M4.113 14.5V3.99h6.75V14.5h-6.75zm2.25 1.86a1.125 1.125 0 0 1 2.25 0 1.125 1.125 0 0 1-2.25 0zM4.5 1.74a1.782 1.782 0 0 0-1.318.56 1.862 1.862 0 0 0-.545 1.34v12.72a1.862 1.862 0 0 0 .545 1.34 1.782 1.782 0 0 0 1.318.56h6.012a1.786 1.786 0 0 0 1.318-.56 1.866 1.866 0 0 0 .545-1.34V3.64a1.866 1.866 0 0 0-.545-1.34 1.786 1.786 0 0 0-1.318-.56H4.5z"/></symbol><symbol viewBox="0 0 30 20.06" id="phonelink" xmlns="http://www.w3.org/2000/svg"><path class="becls-1" d="M22.5 16.3V7.51h4.98v8.79H22.5zM21.27 5.05a1.313 1.313 0 0 0-.909.35 1.159 1.159 0 0 0-.381.88v12.48a1.24 1.24 0 0 0 .381.91 1.256 1.256 0 0 0 .909.38h7.5a1.157 1.157 0 0 0 .878-.38 1.291 1.291 0 0 0 .352-.91V6.28a1.2 1.2 0 0 0-1.23-1.23h-7.5zm6.21-2.52V.01H4.98a2.309 2.309 0 0 0-1.728.76 2.474 2.474 0 0 0-.732 1.76V16.3H0v3.75h17.52V16.3H4.98V2.53h22.5z"/></symbol><symbol viewBox="0 0 10.969 13.969" id="play_arrow" xmlns="http://www.w3.org/2000/svg"><path class="bfcls-1" d="M-.015 13.953l10.968-6.984L-.015-.015v13.968z"/></symbol><symbol viewBox="0 0 65 59.91" id="play_circle_filled" xmlns="http://www.w3.org/2000/svg"><path class="bgcls-1" d="M26.437 16.44l18 13.5-18 13.5v-27zM2.531 29.94A30.009 30.009 0 1 0 11.32 8.78a28.823 28.823 0 0 0-8.789 21.16z"/></symbol><symbol viewBox="0 0 25 27.56" id="security" xmlns="http://www.w3.org/2000/svg"><path class="bhcls-1" d="M1.25 5.05v7.5a15.51 15.51 0 0 0 3.223 9.52 8.619 8.619 0 0 0 16.054 0 15.516 15.516 0 0 0 3.223-9.52v-7.5L12.5.01zm19.98 8.73a13.807 13.807 0 0 1-2.871 7 12.006 12.006 0 0 1-5.859 4.19V13.78h8.73zm-17.46 0V6.63l8.73-3.87v11.02H3.77z"/></symbol><symbol viewBox="0 0 15.75 13.5" id="send" xmlns="http://www.w3.org/2000/svg"><path class="bicls-1" d="M15.762 6.7L.012 0v5.2l11.25 1.5L.012 8.2v5.3z"/></symbol><symbol viewBox="0 0 39.938 37.97" id="star" xmlns="http://www.w3.org/2000/svg"><path class="bjcls-1" d="M32.344 37.97l-3.281-14.06 10.875-9.47-14.344-1.22L19.969 0l-5.625 13.22L0 14.44l10.875 9.47-3.281 14.06 12.375-7.5z"/></symbol><symbol viewBox="0 0 35 45" id="touch_app" xmlns="http://www.w3.org/2000/svg"><path class="bkcls-1" d="M21.62 22.69a4.839 4.839 0 0 0-1.03-.19H19v-12a2.88 2.88 0 0 0-.89-2.16 3.07 3.07 0 0 0-4.22 0A2.844 2.844 0 0 0 13 10.5v21.47l-6.84-1.41a.751.751 0 0 1-.24-.04.563.563 0 0 0-.23-.05 2.174 2.174 0 0 0-1.6.66L2.5 32.72l9.94 9.94a2.806 2.806 0 0 0 2.06.84h13.59a2.971 2.971 0 0 0 1.97-.7 2.571 2.571 0 0 0 .94-1.83l1.5-10.59V30a2.835 2.835 0 0 0-1.78-2.72zM11.03 10.5A4.951 4.951 0 0 1 16 5.53a4.981 4.981 0 0 1 3.56 1.45 4.734 4.734 0 0 1 1.5 3.52V18A8.339 8.339 0 0 0 25 10.5a9 9 0 1 0-18 0 8.424 8.424 0 0 0 4.03 7.5v-7.5z"/></symbol><symbol viewBox="0 0 14.062 11.43" id="twitter" xmlns="http://www.w3.org/2000/svg"><path data-name="" class="blcls-1" d="M14.076 1.35a5.5 5.5 0 0 1-1.66.45A2.884 2.884 0 0 0 13.683.21a5.8 5.8 0 0 1-1.83.7 2.886 2.886 0 0 0-4.989 1.97 3.215 3.215 0 0 0 .071.66A8.179 8.179 0 0 1 .99.52a2.891 2.891 0 0 0 .893 3.86 2.862 2.862 0 0 1-1.3-.37v.04a2.887 2.887 0 0 0 2.312 2.83 3.169 3.169 0 0 1-.758.1 3.258 3.258 0 0 1-.545-.05 2.87 2.87 0 0 0 2.7 2 5.754 5.754 0 0 1-3.58 1.23 5.334 5.334 0 0 1-.7-.03 8.212 8.212 0 0 0 12.631-6.91c0-.12 0-.25-.009-.37a6.261 6.261 0 0 0 1.442-1.5z"/></symbol><symbol viewBox="0 0 25 27.56" id="verified_user" xmlns="http://www.w3.org/2000/svg"><path class="bmcls-1" d="M5 15.01l1.76-1.76 3.22 3.23 8.26-8.21L20 10.03 9.98 20.05zM1.25 5.05v7.5a15.5 15.5 0 0 0 3.22 9.52 8.623 8.623 0 0 0 16.06 0 15.5 15.5 0 0 0 3.22-9.52v-7.5L12.5.01z"/></symbol><symbol viewBox="0 0 27.84 27.843" id="windows" xmlns="http://www.w3.org/2000/svg"><path data-name="" class="bncls-1" d="M11.42 14.69H0v9.324l11.42 1.573v-10.9zm0-12.437L0 3.827v9.457h11.42V2.253zM27.85 14.69H12.67v11.065l15.18 2.092V14.69zm0-14.7L12.67 2.082v11.2h15.18V-.008z"/></symbol></svg>